<?xml version="1.0" encoding="utf-8"?>
<!-- Generator: Adobe Illustrator 21.0.0, SVG Export Plug-In . SVG Version: 6.00 Build 0)  -->
<svg version="1.1" id="Layer_1" xmlns:sketch="http://www.bohemiancoding.com/sketch/ns"
	 xmlns="http://www.w3.org/2000/svg" xmlns:xlink="http://www.w3.org/1999/xlink" x="0px" y="0px" viewBox="0 0 588 184"
	 style="enable-background:new 0 0 588 184;" xml:space="preserve">
<style type="text/css">
	.st0{fill:#FFFFFF;}
	.st1{fill:#78C04C;stroke:#427638;stroke-miterlimit:10;}
	.st2{fill:#427638;}
	.st3{fill:#78C04C;stroke:#78C04C;stroke-miterlimit:10;}
</style>
<title>Untitled</title>
<desc>Created with Sketch.</desc>
<g id="XMLID_1_">
	<g id="XMLID_2_">
		<path id="XMLID_6_" class="st0" d="M79.3,100.3L92,117.7h-1.8l-12.5-17.2c-1.4,0.1-2.9,0.3-4.5,0.3H58v16.9h-1.4V68.5h16.7
			c12,0,18.8,5.8,18.8,16C92,93,87.4,98.5,79.3,100.3z M73.2,99.4c11,0,17.4-5.4,17.4-14.9c0-9.3-6.3-14.6-17.4-14.6H58v29.5H73.2z"
			/>
		<path id="XMLID_9_" class="st0" d="M108.7,70v21.7h26.1v1.4h-26.1v23.2H139v1.4h-31.7V68.5H138v1.4h-29.3V70z"/>
		<polygon id="XMLID_4_" class="st0" points="24.1,68.6 22.5,68.6 0,117.7 1.7,117.7 23.3,70.2 45.2,117.7 46.8,117.7 		"/>
		<polygon id="XMLID_3_" class="st0" points="168.4,68.6 166.8,68.6 144.3,117.7 146,117.7 167.6,70.2 189.6,117.7 191.2,117.7 		
			"/>
	</g>
	<g id="XMLID_5_">
		<path id="XMLID_15_" class="st0" d="M529.1,68.6c9.5,0,15,4.4,15,12.2c0,6.2-3.5,10.3-9.7,11.4c7.8,0.9,12.3,5.5,12.3,12.4
			c0,8.4-6.4,13.1-17.6,13.1h-19.7V68.6H529.1z M510.7,91.6H529c8.6,0,13.6-3.9,13.6-10.8c0-6.8-4.9-10.7-13.6-10.7h-18.3V91.6z
			 M510.7,116.3H529c10.3,0,16.2-4.3,16.2-11.8c0-7.4-5.9-11.6-16.2-11.6h-18.3V116.3z"/>
		<path id="XMLID_19_" class="st0" d="M586,72.2l-0.7,1.1c-3.2-2-8-3.3-12.4-3.3c-8.6,0-14.3,3.7-14.3,9.5c0,16.4,29.5,8,29.4,26.3
			c0,7.2-6.5,11.9-16.6,11.9c-6.2,0-12.7-2.7-16.8-6.9l1-1c3.7,3.9,9.9,6.5,15.8,6.5c9.3,0,15.2-4.1,15.2-10.5
			c0.1-16.9-29.4-8.4-29.4-26.3c0-6.6,6.2-10.9,15.7-10.9C577.5,68.6,582.6,70,586,72.2z"/>
		<polygon id="XMLID_23_" class="st0" points="476.9,68.6 475.3,68.6 452.8,117.7 454.5,117.7 476.1,70.2 498,117.7 499.6,117.7 		
			"/>
		<polygon id="XMLID_12_" class="st0" points="438,116.3 416,116.3 416,68.6 414.6,68.6 414.6,117.7 438,117.7 445.2,117.7 
			445.2,116.3 		"/>
	</g>
	<g id="XMLID_11_">
		<g id="XMLID_14_">
			<path id="XMLID_21_" class="st1" d="M262.6,68.1v12.1h6.8c17.2,0,28.5,9.2,28.5,22.7c0,15.8-11.8,26-30,26
				c-9.9,0-21.2-3.8-29-9.3l7.6-14.5c5.6,6,12.4,9.2,19.1,9.2c7.4,0,11.7-3.7,11.7-10.1c0-5.9-4.3-9.3-11.7-9.3
				c-3.9,0-15.8,0.2-20.4,0.5V53h49.3v15.2h-31.9V68.1z"/>
			<path id="XMLID_24_" class="st1" d="M359.9,71.7c0,8.2-6,16.7-14.2,25L330.4,113h31.7v15.2h-56.3v-12.4l26.9-28.5
				c4.2-4.4,7.2-9.5,7.2-12.9c0-4.3-3.1-6.9-8.5-6.9c-6.1,0-13.6,3.7-20.5,9.6l-7.2-13.8c9.5-7.1,19.8-11.3,30.5-11.3
				C349.1,52.1,359.9,59.8,359.9,71.7z"/>
		</g>
		<g id="XMLID_34_">
			<path id="XMLID_28_" class="st2" d="M302.8,182.4c-49.8,0-90.4-40.5-90.4-90.4s40.5-90.4,90.4-90.4c49.8,0,90.4,40.5,90.4,90.4
				S352.7,182.4,302.8,182.4z M302.8,3.6c-48.7,0-88.4,39.7-88.4,88.4s39.7,88.4,88.4,88.4s88.4-39.7,88.4-88.4
				C391.2,43.3,351.6,3.6,302.8,3.6z M302.8,169.7c-42.8,0-77.7-34.8-77.7-77.7c0-42.8,34.8-77.7,77.7-77.7
				c42.8,0,77.7,34.8,77.7,77.7C380.5,134.8,345.7,169.7,302.8,169.7z M302.8,16.3c-41.7,0-75.7,34-75.7,75.7s34,75.7,75.7,75.7
				s75.7-34,75.7-75.7S344.6,16.3,302.8,16.3z"/>
			<path id="XMLID_13_" class="st3" d="M302.8,2.6c-49.4,0-89.4,40-89.4,89.4s40,89.4,89.4,89.4s89.4-40,89.4-89.4
				S352.2,2.6,302.8,2.6z M302.8,168.7c-42.4,0-76.7-34.3-76.7-76.7s34.3-76.7,76.7-76.7s76.7,34.3,76.7,76.7
				S345.2,168.7,302.8,168.7z"/>
		</g>
	</g>
</g>
</svg>
