<?xml version="1.0" encoding="utf-8"?>
<!-- Generator: Adobe Illustrator 19.0.0, SVG Export Plug-In . SVG Version: 6.00 Build 0)  -->
<svg version="1.1" id="Layer_1" xmlns:sketch="http://www.bohemiancoding.com/sketch/ns"
	 xmlns="http://www.w3.org/2000/svg" xmlns:xlink="http://www.w3.org/1999/xlink" x="0px" y="0px" viewBox="-11 305 588 184"
	 style="enable-background:new -11 305 588 184;" xml:space="preserve">
<style type="text/css">
	.st0{fill:#231F20;}
	.st1{fill:#78C04C;stroke:#427638;stroke-width:2;stroke-miterlimit:10;}
	.st2{fill:#78C04C;}
	.st3{fill:#427638;}
</style>
<title>Untitled</title>
<desc>Created with Sketch.</desc>
<g id="XMLID_1_">
	<g id="XMLID_2_">
		<path id="XMLID_6_" class="st0" d="M68.3,405.3L81,422.7h-1.8l-12.5-17.2c-1.4,0.1-2.9,0.3-4.5,0.3H47v16.9h-1.4v-49.2h16.7
			c12,0,18.8,5.8,18.8,16C81,398,76.4,403.5,68.3,405.3z M62.2,404.4c11,0,17.4-5.4,17.4-14.9c0-9.3-6.3-14.6-17.4-14.6H47v29.5
			H62.2z"/>
		<path id="XMLID_9_" class="st0" d="M97.7,375v21.7h26.1v1.4H97.7v23.2h30.3v1.4H96.3v-49.2h30.7v1.4H97.7z"/>
		<polygon id="XMLID_4_" class="st0" points="13.1,373.6 11.5,373.6 -11,422.7 -9.3,422.7 12.3,375.2 34.2,422.7 35.8,422.7 		"/>
		<polygon id="XMLID_3_" class="st0" points="157.4,373.6 155.8,373.6 133.3,422.7 135,422.7 156.6,375.2 178.6,422.7 180.2,422.7 
					"/>
	</g>
	<g id="XMLID_5_">
		<path id="XMLID_15_" class="st0" d="M518.1,373.6c9.5,0,15,4.4,15,12.2c0,6.2-3.5,10.3-9.7,11.4c7.8,0.9,12.3,5.5,12.3,12.4
			c0,8.4-6.4,13.1-17.6,13.1h-19.7v-49.1H518.1z M499.7,396.6h18.3c8.6,0,13.6-3.9,13.6-10.8c0-6.8-4.9-10.7-13.6-10.7h-18.3V396.6z
			 M499.7,421.3h18.3c10.3,0,16.2-4.3,16.2-11.8c0-7.4-5.9-11.6-16.2-11.6h-18.3V421.3z"/>
		<path id="XMLID_19_" class="st0" d="M575,377.2l-0.7,1.1c-3.2-2-8-3.3-12.4-3.3c-8.6,0-14.3,3.7-14.3,9.5c0,16.4,29.5,8,29.4,26.3
			c0,7.2-6.5,11.9-16.6,11.9c-6.2,0-12.7-2.7-16.8-6.9l1-1c3.7,3.9,9.9,6.5,15.8,6.5c9.3,0,15.2-4.1,15.2-10.5
			c0.1-16.9-29.4-8.4-29.4-26.3c0-6.6,6.2-10.9,15.7-10.9C566.5,373.6,571.6,375,575,377.2z"/>
		<polygon id="XMLID_23_" class="st0" points="465.9,373.6 464.3,373.6 441.8,422.7 443.5,422.7 465.1,375.2 487,422.7 488.6,422.7 
					"/>
		<polygon id="XMLID_12_" points="427,421.3 405,421.3 405,373.6 403.6,373.6 403.6,422.7 427,422.7 434.2,422.7 434.2,421.3 		"/>
	</g>
	<g id="XMLID_11_">
		<g id="XMLID_14_">
			<path id="XMLID_21_" class="st1" d="M251.6,373.1v12.1h6.8c17.2,0,28.5,9.2,28.5,22.7c0,15.8-11.8,26-30,26
				c-9.9,0-21.2-3.8-29-9.3l7.6-14.5c5.6,6,12.4,9.2,19.1,9.2c7.4,0,11.7-3.7,11.7-10.1c0-5.9-4.3-9.3-11.7-9.3
				c-3.9,0-15.8,0.2-20.4,0.5v-42.4h49.3v15.2H251.6z"/>
			<path id="XMLID_24_" class="st1" d="M348.9,376.7c0,8.2-6,16.7-14.2,25L319.4,418h31.7v15.2h-56.3v-12.4l26.9-28.5
				c4.2-4.4,7.2-9.5,7.2-12.9c0-4.3-3.1-6.9-8.5-6.9c-6.1,0-13.6,3.7-20.5,9.6l-7.2-13.8c9.5-7.1,19.8-11.3,30.5-11.3
				C338.1,357.1,348.9,364.8,348.9,376.7z"/>
		</g>
		<g id="XMLID_34_">
			<path id="XMLID_13_" class="st2" d="M291.8,307.6c-49.4,0-89.4,40-89.4,89.4s40,89.4,89.4,89.4s89.4-40,89.4-89.4
				S341.2,307.6,291.8,307.6z M291.8,473.7c-42.4,0-76.7-34.3-76.7-76.7c0-42.4,34.3-76.7,76.7-76.7s76.7,34.3,76.7,76.7
				C368.5,439.4,334.2,473.7,291.8,473.7z"/>
			<path id="XMLID_28_" class="st3" d="M291.8,487.4c-49.8,0-90.4-40.5-90.4-90.4s40.5-90.4,90.4-90.4c49.8,0,90.4,40.5,90.4,90.4
				S341.7,487.4,291.8,487.4z M291.8,308.6c-48.7,0-88.4,39.7-88.4,88.4c0,48.7,39.7,88.4,88.4,88.4c48.7,0,88.4-39.7,88.4-88.4
				C380.2,348.3,340.6,308.6,291.8,308.6z M291.8,474.7c-42.8,0-77.7-34.8-77.7-77.7c0-42.8,34.8-77.7,77.7-77.7
				c42.8,0,77.7,34.8,77.7,77.7C369.5,439.8,334.7,474.7,291.8,474.7z M291.8,321.3c-41.7,0-75.7,34-75.7,75.7
				c0,41.7,34,75.7,75.7,75.7s75.7-34,75.7-75.7C367.5,355.3,333.6,321.3,291.8,321.3z"/>
		</g>
	</g>
</g>
</svg>
