
<svg width="29px" height="28px" viewBox="0 0 29 28" version="1.1" xmlns="http://www.w3.org/2000/svg" xmlns:xlink="http://www.w3.org/1999/xlink">
    <!-- Generator: Sketch 44.1 (41455) - http://www.bohemiancoding.com/sketch -->
    <desc>Created with Sketch.</desc>
    <defs></defs>
    <g id="Welcome" stroke="none" stroke-width="1" fill="none" fill-rule="evenodd">
        <g id="Desktop-HD" transform="translate(-1231.000000, -37.000000)" stroke="#78C04C" stroke-width="2">
            <g id="icon_ios_phone" transform="translate(1221.000000, 28.000000)">
                <path d="M11.6967755,14.4725864 C11.6967755,18.4943708 14.7807857,23.8971778 20.4838511,29.0110335 C26.4919282,34.3983889 30.5908895,36.3377507 33.8166217,35.575447 C34.4682614,35.4214518 35.7694245,34.5330863 36.5136693,33.6040427 C37.3565339,32.5518916 37.4157009,31.7361112 36.5952962,30.9888062 C36.4602133,30.8651328 36.3624315,30.7758542 36.2529014,30.6771632 C36.0749756,30.516845 35.8950772,30.3580241 35.7041929,30.1937609 C35.1942387,29.7549258 34.6705358,29.3329708 34.1352335,28.938589 C33.3239281,28.3408631 32.5444404,27.850346 31.8244594,27.5015454 C31.2986882,27.2468313 30.8186533,27.0750295 30.3978693,26.9930255 C30.1746377,26.9495213 29.9443975,27.062577 29.3532721,27.5405194 C29.2098008,27.6568268 29.1362558,27.7160264 29.054744,27.7797893 C28.0086525,28.5980989 27.1069694,28.8448893 26.0298885,28.1762736 C23.3767615,26.5293014 20.3276163,23.4812119 19.1966517,21.004643 C18.7631265,20.0553162 19.0821171,19.3314448 20.0200971,18.0175333 C20.0755498,17.9400213 20.0755498,17.9400213 20.1302708,17.8639135 C20.5328276,17.3042323 20.6736362,17.0929165 20.7804741,16.8699848 C20.8401037,16.7455598 20.8385308,16.7607615 20.8963301,16.8573037 C18.0654498,12.1288804 16.8074188,10.5205833 16.0035912,10.5205833 C15.4467797,10.5205833 14.3421258,10.8280169 13.4959424,11.3479093 C12.343098,12.0562131 11.6967755,13.0621286 11.6967755,14.4725864 Z" id="Path-107"></path>
            </g>
        </g>
    </g>
</svg>
